<svg width="24" height="24" viewBox="0 0 24 24" fill="none" xmlns="http://www.w3.org/2000/svg">
<path d="M21.52 11.615C21.333 11.2361 21.075 10.8966 20.76 10.615L13.76 3.61504C13.3347 3.18594 12.8284 2.84563 12.2705 2.61388C11.7126 2.38212 11.1141 2.26354 10.51 2.26503H5.58998C5.15447 2.26371 4.72307 2.34836 4.32033 2.51411C3.91759 2.67987 3.55148 2.92348 3.24306 3.23097C2.93464 3.53847 2.68993 3.9038 2.52297 4.30605C2.356 4.70829 2.27004 5.13951 2.27004 5.57503V10.495C2.26833 11.1007 2.3867 11.7007 2.61843 12.2603C2.85015 12.8198 3.19061 13.3279 3.62001 13.7551L10.62 20.7551C10.9288 21.0642 11.2958 21.3089 11.6999 21.475C12.1014 21.6464 12.5334 21.7348 12.97 21.735C13.8516 21.7246 14.6932 21.365 15.31 20.735L18.04 18.015L20.76 15.295C21.0691 14.9862 21.3138 14.6192 21.48 14.215C21.8134 13.4012 21.8134 12.4889 21.48 11.675L21.52 11.615ZM9.15004 11.895C8.58241 11.895 8.02753 11.7267 7.55556 11.4114C7.08359 11.096 6.71578 10.6478 6.49855 10.1233C6.28133 9.59891 6.22448 9.02186 6.33522 8.46513C6.44596 7.90841 6.71925 7.39703 7.12062 6.99565C7.522 6.59427 8.03338 6.32093 8.59011 6.21019C9.14683 6.09945 9.72388 6.15627 10.2483 6.37349C10.7727 6.59071 11.221 6.95859 11.5364 7.43056C11.8517 7.90253 12.02 8.45741 12.02 9.02504C12.0226 9.40409 11.9504 9.77992 11.8075 10.131C11.6646 10.4821 11.4538 10.8015 11.1871 11.0709C10.9205 11.3403 10.6032 11.5545 10.2536 11.701C9.90411 11.8476 9.5291 11.9237 9.15004 11.925V11.895Z" fill="#525463"/>
</svg>
