<svg width="24" height="24" viewBox="0 0 24 24" fill="none" xmlns="http://www.w3.org/2000/svg">
<path d="M12 1.75C9.9728 1.75 7.99109 2.35116 6.30548 3.47745C4.61988 4.60373 3.30601 6.20454 2.53022 8.07748C1.75442 9.95043 1.55146 12.0114 1.94696 13.9997C2.34246 15.988 3.31865 17.8143 4.75214 19.2478C6.18563 20.6813 8.012 21.6575 10.0003 22.053C11.9886 22.4485 14.0496 22.2456 15.9225 21.4698C17.7955 20.694 19.3963 19.3802 20.5226 17.6946C21.6489 16.009 22.25 14.0273 22.25 12C22.2474 9.28234 21.1666 6.67677 19.2449 4.7551C17.3232 2.83342 14.7177 1.75265 12 1.75ZM16.67 15.25C16.7637 15.343 16.8382 15.4536 16.8889 15.5754C16.9397 15.6973 16.9659 15.828 16.9659 15.96C16.9659 16.092 16.9397 16.2227 16.8889 16.3446C16.8382 16.4664 16.7637 16.5771 16.67 16.67C16.577 16.7637 16.4664 16.8381 16.3445 16.8889C16.2227 16.9397 16.092 16.9658 15.96 16.9658C15.828 16.9658 15.6973 16.9397 15.5755 16.8889C15.4536 16.8381 15.343 16.7637 15.25 16.67L12 13.42L8.75006 16.67C8.56176 16.857 8.30681 16.9615 8.04145 16.9606C7.77608 16.9596 7.522 16.8533 7.33502 16.665C7.14805 16.4767 7.04356 16.2218 7.0445 15.9565C7.04543 15.6911 7.15173 15.437 7.34003 15.25L10.59 12L7.34003 8.75C7.23535 8.66035 7.1503 8.55003 7.09027 8.42596C7.03025 8.3019 6.99659 8.16677 6.99127 8.02905C6.98596 7.89133 7.00912 7.754 7.05939 7.62567C7.10966 7.49735 7.18593 7.38081 7.28339 7.28336C7.38084 7.1859 7.49735 7.10963 7.62567 7.05936C7.754 7.00908 7.8914 6.98589 8.02912 6.99121C8.16684 6.99653 8.3019 7.03025 8.42597 7.09027C8.55003 7.15029 8.66042 7.23531 8.75006 7.34L12 10.59L15.25 7.34C15.343 7.24627 15.4536 7.17189 15.5755 7.12112C15.6973 7.07036 15.828 7.04419 15.96 7.04419C16.092 7.04419 16.2227 7.07036 16.3445 7.12112C16.4664 7.17189 16.577 7.24627 16.67 7.34C16.8562 7.52736 16.9608 7.78083 16.9608 8.04501C16.9608 8.3092 16.8562 8.56264 16.67 8.75L13.42 12L16.67 15.25Z" fill="#90929E"/>
</svg>
